name C:\Users\u0101727\Documents\MyRepositories\upper-imu-dc\Results\main_tracking\Case_32\ABD01_angularVelocities_bodyFrame.mot
datacolumns 4
datarows 117
range 6.31000000 7.47000000
endheader 
time	radius_imu_x	radius_imu_y	radius_imu_z	
          6.31000000	         -0.51885736	         -0.33602241	          0.36316394	
          6.32000000	         -0.52049491	         -0.33046242	          0.37417142	
          6.33000000	         -0.52256093	         -0.32817483	          0.38293311	
          6.34000000	         -0.52483035	         -0.32735168	          0.38937811	
          6.35000000	         -0.52693618	         -0.32567864	          0.39358564	
          6.36000000	         -0.52841716	         -0.32107672	          0.39570330	
          6.37000000	         -0.52881720	         -0.31246425	          0.39585710	
          6.38000000	         -0.52781125	         -0.30027857	          0.39408735	
          6.39000000	         -0.52530508	         -0.28651322	          0.39034113	
          6.40000000	         -0.52145697	         -0.27416805	          0.38452605	
          6.41000000	         -0.51660535	         -0.26626792	          0.37659340	
          6.42000000	         -0.51113661	         -0.26483383	          0.36660325	
          6.43000000	         -0.50535489	         -0.27020910	          0.35474237	
          6.44000000	         -0.49940540	         -0.28097491	          0.34129497	
          6.45000000	         -0.49327235	         -0.29446438	          0.32658194	
          6.46000000	         -0.48684390	         -0.30766864	          0.31088906	
          6.47000000	         -0.48001431	         -0.31818181	          0.29440876	
          6.48000000	         -0.47277688	         -0.32481995	          0.27722154	
          6.49000000	         -0.46526013	         -0.32769101	          0.25933363	
          6.50000000	         -0.45768650	         -0.32775365	          0.24075987	
          6.51000000	         -0.45028177	         -0.32614710	          0.22161111	
          6.52000000	         -0.44319247	         -0.32363970	          0.20214263	
          6.53000000	         -0.43645317	         -0.32041886	          0.18274854	
          6.54000000	         -0.43000887	         -0.31624464	          0.16391786	
          6.55000000	         -0.42377289	         -0.31082256	          0.14617800	
          6.56000000	         -0.41769121	         -0.30417878	          0.13004392	
          6.57000000	         -0.41178243	         -0.29685128	          0.11598020	
          6.58000000	         -0.40613278	         -0.28981824	          0.10437657	
          6.59000000	         -0.40085212	         -0.28422144	          0.09553079	
          6.60000000	         -0.39602230	         -0.28103158	          0.08963093	
          6.61000000	         -0.39166709	         -0.28079508	          0.08673821	
          6.62000000	         -0.38775257	         -0.28352426	          0.08678079	
          6.63000000	         -0.38420940	         -0.28872477	          0.08956582	
          6.64000000	         -0.38095534	         -0.29553209	          0.09480656	
          6.65000000	         -0.37789451	         -0.30293267	          0.10215625	
          6.66000000	         -0.37489221	         -0.31004680	          0.11124052	
          6.67000000	         -0.37175605	         -0.31642250	          0.12168033	
          6.68000000	         -0.36826156	         -0.32223365	          0.13310080	
          6.69000000	         -0.36422767	         -0.32826520	          0.14512845	
          6.70000000	         -0.35960229	         -0.33566082	          0.15738594	
          6.71000000	         -0.35450007	         -0.34553331	          0.16949209	
          6.72000000	         -0.34915947	         -0.35857678	          0.18107106	
          6.73000000	         -0.34383775	         -0.37477007	          0.19177110	
          6.74000000	         -0.33870113	         -0.39323824	          0.20128588	
          6.75000000	         -0.33376137	         -0.41236470	          0.20936487	
          6.76000000	         -0.32887043	         -0.43020524	          0.21580554	
          6.77000000	         -0.32374885	         -0.44509759	          0.22043828	
          6.78000000	         -0.31802124	         -0.45621500	          0.22312515	
          6.79000000	         -0.31125853	         -0.46383238	          0.22378087	
          6.80000000	         -0.30304183	         -0.46923636	          0.22240407	
          6.81000000	         -0.29304392	         -0.47436303	          0.21909997	
          6.82000000	         -0.28110336	         -0.48128466	          0.21408205	
          6.83000000	         -0.26726617	         -0.49163924	          0.20765101	
          6.84000000	         -0.25178546	         -0.50610242	          0.20015636	
          6.85000000	         -0.23508284	         -0.52403193	          0.19194806	
          6.86000000	         -0.21767858	         -0.54339892	          0.18332807	
          6.87000000	         -0.20009685	         -0.56104751	          0.17451216	
          6.88000000	         -0.18276863	         -0.57321366	          0.16560823	
          6.89000000	         -0.16597474	         -0.57613253	          0.15661192	
          6.90000000	         -0.14985656	         -0.56655310	          0.14742440	
          6.91000000	         -0.13448347	         -0.54211204	          0.13789206	
          6.92000000	         -0.11993395	         -0.50164879	          0.12785637	
          6.93000000	         -0.10634044	         -0.44554695	          0.11719669	
          6.94000000	         -0.09386871	         -0.37604842	          0.10585828	
          6.95000000	         -0.08264451	         -0.29732192	          0.09386961	
          6.96000000	         -0.07267601	         -0.21507098	          0.08135395	
          6.97000000	         -0.06381901	         -0.13564643	          0.06853614	
          6.98000000	         -0.05579889	         -0.06486774	          0.05573879	
          6.99000000	         -0.04827034	         -0.00691824	          0.04335154	
          7.00000000	         -0.04088369	          0.03635716	          0.03176041	
          7.01000000	         -0.03333317	          0.06562593	          0.02124935	
          7.02000000	         -0.02537477	          0.08378055	          0.01190889	
          7.03000000	         -0.01681344	          0.09534529	          0.00358456	
          7.04000000	         -0.00747093	          0.10572265	         -0.00412248	
          7.05000000	          0.00285324	          0.12034337	         -0.01180832	
          7.06000000	          0.01442002	          0.14375359	         -0.02018518	
          7.07000000	          0.02757697	          0.17879099	         -0.02998004	
          7.08000000	          0.04275696	          0.22611871	         -0.04182833	
          7.09000000	          0.06044107	          0.28429504	         -0.05618167	
          7.10000000	          0.08109516	          0.35030045	         -0.07324883	
          7.11000000	          0.10509899	          0.42022487	         -0.09298396	
          7.12000000	          0.13268333	          0.48978861	         -0.11512848	
          7.13000000	          0.16388502	          0.55455584	         -0.13929974	
          7.14000000	          0.19852756	          0.60999499	         -0.16509632	
          7.15000000	          0.23622967	          0.65174098	         -0.19217310	
          7.16000000	          0.27643860	          0.67628806	         -0.22024916	
          7.17000000	          0.31848434	          0.68191832	         -0.24905479	
          7.18000000	          0.36165080	          0.66934615	         -0.27826523	
          7.19000000	          0.40526052	          0.64165330	         -0.30747070	
          7.20000000	          0.44876610	          0.60349165	         -0.33619694	
          7.21000000	          0.49182668	          0.55989852	         -0.36395737	
          7.22000000	          0.53433415	          0.51518236	         -0.39030900	
          7.23000000	          0.57636962	          0.47221195	         -0.41489258	
          7.24000000	          0.61810855	          0.43224342	         -0.43744717	
          7.25000000	          0.65971517	          0.39525025	         -0.45779932	
          7.26000000	          0.70126072	          0.36058106	         -0.47583829	
          7.27000000	          0.74267805	          0.32767335	         -0.49149433	
          7.28000000	          0.78374905	          0.29655201	         -0.50473060	
          7.29000000	          0.82412339	          0.26794908	         -0.51554130	
          7.30000000	          0.86336499	          0.24304973	         -0.52394145	
          7.31000000	          0.90100880	          0.22303441	         -0.52994314	
          7.32000000	          0.93661026	          0.20865967	         -0.53352567	
          7.33000000	          0.96978450	          0.20005217	         -0.53460980	
          7.34000000	          1.00023222	          0.19674581	         -0.53304626	
          7.35000000	          1.02774016	          0.19786230	         -0.52862474	
          7.36000000	          1.05214921	          0.20227764	         -0.52110657	
          7.37000000	          1.07330226	          0.20867785	         -0.51028137	
          7.38000000	          1.09100296	          0.21555355	         -0.49603852	
          7.39000000	          1.10502003	          0.22126840	         -0.47843025	
          7.40000000	          1.11514975	          0.22427059	         -0.45770178	
          7.41000000	          1.12131365	          0.22338656	         -0.43427747	
          7.42000000	          1.12364677	          0.21808389	         -0.40870846	
          7.43000000	          1.12253985	          0.20863052	         -0.38159801	
          7.44000000	          1.11862305	          0.19612409	         -0.35352859	
          7.45000000	          1.11269960	          0.18236307	         -0.32501771	
          7.46000000	          1.10564685	          0.16951876	         -0.29651916	
          7.47000000	          1.09830148	          0.15960509	         -0.26846274	
